<svg id="Icon" xmlns="http://www.w3.org/2000/svg" viewBox="0 0 338 303"><defs><style>.cls-1{fill:#00609c;}.cls-2{fill:#5b0091;}</style></defs><path class="cls-1" d="M277.25,274.69a235.6,235.6,0,0,1-56.2-7c-39-9.64-73.24-28.17-101.66-55.07a220.51,220.51,0,0,1-41.9-54.31,233.73,233.73,0,0,1-21-53.13A235.46,235.46,0,0,1,48.55,39l.23-6.93,6.93-.27a234.3,234.3,0,0,1,66.1,7.69A232.9,232.9,0,0,1,175,60.39a219.74,219.74,0,0,1,54.36,41.87c27,28.59,45.58,63,55.07,102.38a235.3,235.3,0,0,1,6.54,62.8l-.28,6.91-6.91.23Q280.76,274.68,277.25,274.69ZM63.36,46.58a229.65,229.65,0,0,0,7.5,54.8,219.86,219.86,0,0,0,19.69,49.75,205.67,205.67,0,0,0,39.08,50.64c26.53,25.11,58.49,42.41,95,51.43a226.34,226.34,0,0,0,51.6,6.59,224.47,224.47,0,0,0-6.28-51.66c-8.87-36.78-26.17-68.95-51.41-95.63a205,205,0,0,0-50.67-39A218.2,218.2,0,0,0,118.08,53.9,227.54,227.54,0,0,0,63.36,46.58Z"/><path class="cls-2" d="M279.51,274c-3.26,0-9.16-1-22.73-9a353.55,353.55,0,0,1-31.58-21.71,768.67,768.67,0,0,1-75.67-66.13A773.48,773.48,0,0,1,81.82,99.51,359.18,359.18,0,0,1,59.73,67.18c-8.21-14-9.15-20-9.14-23.22a10.77,10.77,0,0,1,3.1-7.91h0C59.86,30,69.92,34.38,78.94,39.5,87.48,44.35,98.43,51.93,111.49,62,137,81.76,167,108.5,191.92,133.57A878.16,878.16,0,0,1,262,213.44c9.93,13,17.37,23.88,22.12,32.36,5,9,9.35,19,3.35,25.11a10.71,10.71,0,0,1-7.87,3.12ZM67.63,50.32a103.43,103.43,0,0,0,5,9.38A347.22,347.22,0,0,0,93.77,90.62a757.67,757.67,0,0,0,66.29,76,753.7,753.7,0,0,0,74,64.68,339.89,339.89,0,0,0,30.16,20.77,100.41,100.41,0,0,0,9,4.84c-3.49-7-11.41-19.69-27.12-39.76a870.81,870.81,0,0,0-64.72-73.11,873.53,873.53,0,0,0-73.62-66C87.46,61.94,74.67,53.86,67.63,50.32Z"/><path class="cls-2" d="M233.94,277a497.11,497.11,0,0,1-50.09-2.35c-23.79-2.42-44.59-6.71-61.8-12.74-27.42-9.61-37.62-20.77-39.95-23.73C65.28,221,54.64,182.12,50.46,122.73,47.39,79.12,49,39.64,49,39.24l.29-6.73,6.73-.38C93.52,30,127.48,30.56,157,33.79c23.81,2.61,44.83,7,62.49,12.94,27.67,9.36,38.82,19.86,41.52,22.78,10.81,8.86,18.79,24.52,24.39,47.84,4.27,17.82,7.06,40.05,8.27,66.07a762.62,762.62,0,0,1-1.17,84.81L292,274.6l-6.38.46C267.47,276.35,250.22,277,233.94,277ZM93.81,229a36.77,36.77,0,0,0,7.32,6.32c5,3.47,13.91,8.6,28.23,13.38,16.19,5.4,35.77,9.23,58.2,11.38,26.41,2.53,56.82,2.73,90.5.59a751,751,0,0,0,.7-76.66c-1.17-25.06-3.82-46.33-7.88-63.21-4.81-20-11.42-33.48-19.66-40l-.7-.55-.39-.51c-3.2-3.6-15.08-12.26-37.56-19.57-16.68-5.42-36.58-9.37-59.13-11.74C127,45.62,96.85,45,63.71,46.64c-.32,13-.66,42.93,1.61,75.17,1.76,24.94,4.72,46.33,8.8,63.56C79,206,85.35,220.38,93,228l.55.55Zm0,.05Z"/></svg>