<?xml version="1.0" encoding="utf-8"?>
<!-- Generator: Adobe Illustrator 26.0.3, SVG Export Plug-In . SVG Version: 6.00 Build 0)  -->
<svg version="1.1" id="Layer_1" xmlns="http://www.w3.org/2000/svg" xmlns:xlink="http://www.w3.org/1999/xlink" x="0px" y="0px"
	 viewBox="0 0 1076 290" style="enable-background:new 0 0 1076 290;" xml:space="preserve">
<style type="text/css">
	.st0{fill:#00609C;}
	.st1{fill:#5B0091;}
	.st2{enable-background:new    ;}
	.st3{fill:#0082CA;}
</style>
<g id="Icon">
	<path class="st0" d="M254.2,265.7c-18.9-0.1-37.8-2.4-56.2-7c-39-9.6-73.2-28.2-101.7-55.1c-16.7-15.8-30.9-34.1-41.9-54.3
		c-9.1-16.8-16.2-34.6-21-53.1C27.7,74.6,25,52.3,25.5,30l0.2-6.9l6.9-0.3c22.3-0.6,44.5,2,66.1,7.7c18.5,4.8,36.4,11.8,53.2,20.9
		c20.2,11,38.5,25.2,54.4,41.9c27.1,28.6,45.6,63,55.1,102.4c5,20.5,7.2,41.7,6.5,62.8l-0.3,6.9l-6.9,0.2
		C258.8,265.6,256.6,265.7,254.2,265.7z M40.4,37.6c0.3,18.5,2.8,36.9,7.5,54.8c4.5,17.3,11.1,34,19.7,49.8
		c10.3,18.8,23.5,35.9,39.1,50.6c26.5,25.1,58.5,42.4,95,51.4c16.9,4.2,34.2,6.4,51.6,6.6c-0.1-17.4-2.2-34.7-6.3-51.7
		c-8.9-36.8-26.2-68.9-51.4-95.6c-14.7-15.6-31.8-28.7-50.7-39c-15.7-8.6-32.5-15.1-49.8-19.6C77.2,40.2,58.8,37.8,40.4,37.6z"/>
	<path class="st1" d="M256.5,265c-3.3,0-9.2-1-22.7-9c-10.9-6.7-21.5-13.9-31.6-21.7c-26.6-20.4-51.9-42.5-75.7-66.1
		c-24.3-24.3-46.9-50.3-67.7-77.7c-7.9-10.4-15.3-21.2-22.1-32.3c-8.2-14-9.1-20-9.1-23.2c-0.1-3,1-5.8,3.1-7.9l0,0
		c6.2-6,16.2-1.7,25.2,3.5c8.5,4.8,19.5,12.4,32.5,22.5c25.5,19.8,55.5,46.5,80.4,71.6c25,25.2,48.4,51.9,70.1,79.9
		c9.9,13,17.4,23.9,22.1,32.4c5,9,9.4,19,3.4,25.1C262.4,264,259.5,265.1,256.5,265L256.5,265z M44.6,41.3c1.5,3.2,3.2,6.3,5,9.4
		c6.5,10.7,13.5,21,21.1,30.9c20.4,26.8,42.5,52.2,66.3,76c23.2,23.1,48,44.8,74,64.7c9.7,7.5,19.7,14.4,30.2,20.8
		c2.9,1.8,5.9,3.4,9,4.8c-3.5-7-11.4-19.7-27.1-39.8c-20.2-25.6-41.8-50-64.7-73.1c-23.3-23.4-47.9-45.4-73.7-66
		C64.5,52.9,51.7,44.9,44.6,41.3z"/>
	<path class="st1" d="M210.9,268c-16.7,0.1-33.4-0.7-50.1-2.4c-23.8-2.4-44.6-6.7-61.8-12.7c-27.4-9.6-37.6-20.8-40-23.7
		C42.3,212,31.6,173.1,27.5,113.7C24.4,70.1,26,30.6,26,30.2l0.3-6.7l6.7-0.4c37.5-2.1,71.5-1.6,101,1.7c23.8,2.6,44.8,7,62.5,12.9
		c27.7,9.4,38.8,19.9,41.5,22.8c10.8,8.9,18.8,24.5,24.4,47.8c4.3,17.8,7.1,40.1,8.3,66.1c1.2,28.3,0.8,56.6-1.2,84.8l-0.5,6.4
		l-6.4,0.5C244.5,267.4,227.2,268,210.9,268z M70.8,220c2.2,2.4,4.6,4.5,7.3,6.3c5,3.5,13.9,8.6,28.2,13.4
		c16.2,5.4,35.8,9.2,58.2,11.4c26.4,2.5,56.8,2.7,90.5,0.6c1.5-25.5,1.8-51.1,0.7-76.7c-1.2-25.1-3.8-46.3-7.9-63.2
		c-4.8-20-11.4-33.5-19.7-40l-0.7-0.6l-0.4-0.5c-3.2-3.6-15.1-12.3-37.6-19.6c-16.7-5.4-36.6-9.4-59.1-11.7
		C104,36.6,73.8,36,40.7,37.6c-0.3,13-0.7,42.9,1.6,75.2c1.8,24.9,4.7,46.3,8.8,63.6C56,197,62.3,211.4,70,219l0.6,0.6L70.8,220z"/>
</g>
<g id="Active_Type">
	<g class="st2">
		<path class="st1" d="M301.9,239.3V105.5h25.5v12.2c7.4-9.4,18-14.6,29.9-14.6c24.9,0,42.9,18.4,42.9,50.7
			c0,32.3-18,50.9-42.9,50.9c-11.4,0-22.1-4.8-29.9-14.8v49.3H301.9z M349.2,125.8c-8.2,0-17.6,4.8-21.9,11v34.3
			c4.2,6,13.6,11,21.9,11c14.6,0,24.5-11.4,24.5-28.3C373.6,137.2,363.8,125.8,349.2,125.8z"/>
	</g>
	<g class="st2">
		<path class="st1" d="M476.3,192.3c-6.6,7.8-18,12.4-30.7,12.4c-15.4,0-33.7-10.4-33.7-32.1c0-22.7,18.2-30.9,33.7-30.9
			c12.8,0,24.3,4,30.7,11.8v-13.4c0-9.8-8.4-16.2-21.3-16.2c-10.4,0-20.1,3.8-28.3,11.4l-9.6-17c11.8-10.4,27.1-15.2,42.3-15.2
			c22.1,0,42.3,8.8,42.3,36.7v62.6h-25.5V192.3z M476.3,167.1c-4.2-5.6-12.2-8.4-20.5-8.4c-10,0-18.2,5.2-18.2,14.6
			c0,9,8.2,14.2,18.2,14.2c8.2,0,16.2-2.8,20.5-8.4V167.1z"/>
	</g>
	<g class="st2">
		<path class="st1" d="M518,105.5h25.5v13.2c6.8-8.6,18.8-15.4,30.9-15.4v24.9c-1.8-0.4-4.2-0.8-7-0.8c-8.4,0-19.7,4.8-23.9,11v64
			H518V105.5z"/>
	</g>
	<g class="st2">
		<path class="st3" d="M706.7,84.3L658,202.4h-4.4L604.6,84.3v118.1h-11.4V68.6h17l45.5,110.3l45.3-110.3h17.2v133.7h-11.6V84.3z"/>
	</g>
	<g class="st2">
		<path class="st3" d="M798.5,66.4c39.1,0,65,30.1,65,69.2s-25.9,69.2-65,69.2c-39.3,0-65-30.1-65-69.2S759.2,66.4,798.5,66.4z
			 M798.5,76.8c-32.5,0-52.9,24.7-52.9,58.8c0,33.7,20.5,58.8,52.9,58.8c32.1,0,52.9-25.1,52.9-58.8
			C851.5,101.5,830.6,76.8,798.5,76.8z"/>
	</g>
	<g class="st2">
		<path class="st3" d="M942.7,66.4c39.1,0,65,30.1,65,69.2s-25.9,69.2-65,69.2c-39.3,0-65-30.1-65-69.2S903.4,66.4,942.7,66.4z
			 M942.7,76.8c-32.5,0-52.9,24.7-52.9,58.8c0,33.7,20.5,58.8,52.9,58.8c32.1,0,52.9-25.1,52.9-58.8
			C995.6,101.5,974.8,76.8,942.7,76.8z"/>
	</g>
</g>
</svg>
