<svg xmlns="http://www.w3.org/2000/svg" viewBox="0 0 1076 290"><defs><style>.cls-1{fill:#00609c;}.cls-2,.cls-3{fill:#5b0091;}.cls-3{font-size:200.51px;font-family:ProximaNova-Bold, Proxima Nova;font-weight:700;letter-spacing:0em;}.cls-4,.cls-6{letter-spacing:-0.04em;}.cls-5,.cls-6,.cls-7{fill:#0082ca;font-family:ProximaNova-Light, Proxima Nova;font-weight:300;}.cls-5{letter-spacing:-0.06em;}</style></defs><g id="Icon"><path class="cls-1" d="M254.25,265.69a235.6,235.6,0,0,1-56.2-7c-39-9.64-73.24-28.17-101.66-55.07a220.51,220.51,0,0,1-41.9-54.31,233.73,233.73,0,0,1-21-53.13A235.46,235.46,0,0,1,25.55,30l.23-6.93,6.93-.27a234.3,234.3,0,0,1,66.1,7.69A232.9,232.9,0,0,1,152,51.39a219.74,219.74,0,0,1,54.36,41.87c27.05,28.59,45.58,63,55.07,102.38a235.3,235.3,0,0,1,6.54,62.8l-.28,6.91-6.91.23Q257.76,265.68,254.25,265.69ZM40.36,37.58a229.65,229.65,0,0,0,7.5,54.8,219.86,219.86,0,0,0,19.69,49.75,205.67,205.67,0,0,0,39.08,50.64c26.53,25.11,58.49,42.41,95,51.43a226.34,226.34,0,0,0,51.6,6.59,224.47,224.47,0,0,0-6.28-51.66c-8.87-36.78-26.17-68.95-51.41-95.63a205,205,0,0,0-50.67-39A218.2,218.2,0,0,0,95.08,44.9,227.54,227.54,0,0,0,40.36,37.58Z"/><path class="cls-2" d="M256.51,265c-3.26,0-9.16-1-22.73-9a353.55,353.55,0,0,1-31.58-21.71,768.67,768.67,0,0,1-75.67-66.13A773.48,773.48,0,0,1,58.82,90.51,359.18,359.18,0,0,1,36.73,58.18c-8.21-14-9.15-20-9.14-23.22a10.77,10.77,0,0,1,3.1-7.91h0C36.86,21,46.92,25.38,55.94,30.5,64.48,35.35,75.43,42.93,88.49,53,114,72.76,144,99.5,168.92,124.57A878.16,878.16,0,0,1,239,204.44c9.93,13,17.37,23.88,22.12,32.36,5,9,9.35,19,3.35,25.11a10.71,10.71,0,0,1-7.87,3.12ZM44.63,41.32a103.43,103.43,0,0,0,5,9.38A347.22,347.22,0,0,0,70.77,81.62a757.67,757.67,0,0,0,66.29,76,753.7,753.7,0,0,0,74,64.68,339.89,339.89,0,0,0,30.16,20.77,100.41,100.41,0,0,0,9,4.84c-3.49-7-11.41-19.69-27.12-39.76a870.81,870.81,0,0,0-64.72-73.11A873.53,873.53,0,0,0,84.73,69C64.46,52.94,51.67,44.86,44.63,41.32Z"/><path class="cls-2" d="M210.94,268a497.11,497.11,0,0,1-50.09-2.35c-23.79-2.42-44.59-6.71-61.8-12.74-27.42-9.61-37.62-20.77-39.95-23.73C42.28,212,31.64,173.12,27.46,113.73,24.39,70.12,26,30.64,26,30.24l.29-6.73,6.73-.38C70.52,21,104.48,21.56,134,24.79c23.81,2.61,44.83,7,62.49,12.94,27.67,9.36,38.82,19.86,41.52,22.78,10.81,8.86,18.79,24.52,24.39,47.84,4.27,17.82,7.06,40.05,8.27,66.07a762.62,762.62,0,0,1-1.17,84.81L269,265.6l-6.38.46C244.47,267.35,227.22,268,210.94,268ZM70.81,220a36.77,36.77,0,0,0,7.32,6.32c5,3.47,13.91,8.6,28.23,13.38,16.19,5.4,35.77,9.23,58.2,11.38,26.41,2.53,56.82,2.73,90.5.59a751,751,0,0,0,.7-76.66c-1.17-25.06-3.82-46.33-7.88-63.21-4.81-20-11.42-33.48-19.66-40l-.7-.55-.39-.51c-3.2-3.6-15.08-12.26-37.56-19.57-16.68-5.42-36.58-9.37-59.13-11.74C104,36.62,73.85,36,40.71,37.64c-.32,13-.66,42.93,1.61,75.17,1.76,24.94,4.72,46.33,8.8,63.56C56,197,62.35,211.38,70,219l.55.55Zm0,.05Z"/></g><g id="Active_Type" data-name="Active Type"><text class="cls-3" transform="translate(289.23 202.37)">p<tspan class="cls-4" x="116.29" y="0">a</tspan><tspan x="216.15" y="0">r</tspan><tspan class="cls-5" x="287.33" y="0">M</tspan><tspan class="cls-6" x="432.69" y="0">O</tspan><tspan class="cls-7" x="576.86" y="0">O</tspan></text></g></svg>